<svg xmlns="http://www.w3.org/2000/svg" viewBox="0 0 32 32">
  <defs>
    <linearGradient id="g" x1="0" x2="1" y1="0" y2="1">
      <stop offset="0" stop-color="#a8c4f8"/>
      <stop offset="1" stop-color="#3b6fd4"/>
    </linearGradient>
  </defs>
  <circle cx="16" cy="16" r="6" fill="url(#g)"/>
  <rect x="15" y="2"  width="2" height="5" rx="1" fill="url(#g)" transform="rotate(0   16 16)" opacity="0.9"/>
  <rect x="15" y="2"  width="2" height="5" rx="1" fill="url(#g)" transform="rotate(45  16 16)" opacity="0.9"/>
  <rect x="15" y="2"  width="2" height="5" rx="1" fill="url(#g)" transform="rotate(90  16 16)" opacity="0.9"/>
  <rect x="15" y="2"  width="2" height="5" rx="1" fill="url(#g)" transform="rotate(135 16 16)" opacity="0.9"/>
  <rect x="15" y="2"  width="2" height="5" rx="1" fill="url(#g)" transform="rotate(180 16 16)" opacity="0.9"/>
  <rect x="15" y="2"  width="2" height="5" rx="1" fill="url(#g)" transform="rotate(225 16 16)" opacity="0.9"/>
  <rect x="15" y="2"  width="2" height="5" rx="1" fill="url(#g)" transform="rotate(270 16 16)" opacity="0.9"/>
  <rect x="15" y="2"  width="2" height="5" rx="1" fill="url(#g)" transform="rotate(315 16 16)" opacity="0.9"/>
</svg>
